Coordinates
version=1
nRows=19
nColumns=27
inDegrees=yes

Units are S.I. units (second, meters, Newtons, ...)
If the header above contains a line with 'inDegrees', this indicates whether rotational values are in degrees (yes) or radians (no).

endheader
time	pelvis_rotation	pelvis_tilt	pelvis_list	pelvis_tx	pelvis_ty	pelvis_tz	hip_flexion_r	hip_adduction_r	hip_rotation_r	knee_angle_r	knee_rotation_r	knee_adduction_r	knee_angle_r_beta	ankle_angle_r	subtalar_angle_r	mtp_angle_r	hip_flexion_l	hip_adduction_l	hip_rotation_l	knee_angle_l	knee_rotation_l	knee_adduction_l	knee_angle_l_beta	ankle_angle_l	subtalar_angle_l	mtp_angle_l
      3.60000000	      4.42627701	    -17.83955016	     -3.82418373	      0.06544817	      0.82461633	     -1.14427238	     29.90755199	    -23.94906914	    -31.40758807	     26.54821048	      0.06710380	      0.11283970	      0.46335368	      1.92044769	      5.53285578	      0.00000000	     39.54118275	    -25.32288665	     -0.43597648	     25.47444994	     -0.28425717	      5.86904511	      0.44461303	     -0.31104211	      1.04800688	      0.00000000
      3.60500000	      3.57030193	    -17.58891946	     -2.73027979	      0.06464626	      0.82433656	     -1.14538347	     30.91692215	    -25.03540947	    -29.33480823	     27.38766076	      0.24926524	     -0.07653490	      0.47800485	      2.06168167	      5.48782873	      0.00000000	     38.31883005	    -24.60173573	     -2.54393742	     25.00428545	     -0.51812950	      5.44471374	      0.43640711	     -0.57036868	      0.74363596	      0.00000000
      3.61000000	      4.44550929	    -18.52425568	     -3.61329795	      0.06303738	      0.82391644	     -1.14440624	     31.22203895	    -24.45496797	    -30.85805990	     27.37651302	      0.26887180	      0.25290508	      0.47781029	      1.94381653	      4.99609554	      0.00000000	     40.62981069	    -25.11900669	     -0.15627925	     25.86043452	     -0.10732989	      5.72869744	      0.45134973	     -0.43918401	      0.57378116	      0.00000000
      3.61500000	      4.41759516	    -18.87308974	     -3.44833256	      0.06172904	      0.82352042	     -1.14455848	     31.95923672	    -24.77209634	    -30.45583925	     27.83888900	      0.39439578	      0.32447848	      0.48588027	      1.94247929	      4.68263564	      0.00000000	     41.14937517	    -24.97802809	     -0.11804758	     26.05553487	     -0.03508419	      5.64595803	      0.45475487	     -0.50261348	      0.35848461	      0.00000000
      3.62000000	      4.20211315	    -19.09363579	     -2.68424048	      0.06028734	      0.82304726	     -1.14534833	     32.99499863	    -25.72878892	    -29.33110207	     28.62750398	      0.63689526	      0.26663078	      0.49964420	      2.08393995	      4.52613323	      0.00000000	     41.09012583	    -24.30161649	     -0.86047636	     25.97136939	     -0.15052166	      5.46852926	      0.45328591	     -0.70903815	      0.00097380	      0.00000000
      3.62500000	      4.37411171	    -19.66599344	     -3.07706507	      0.05876198	      0.82259402	     -1.14490530	     33.61633678	    -25.47083827	    -29.52629911	     28.85737173	      0.68225157	      0.43358936	      0.50365615	      1.97091040	      4.04089627	      0.00000000	     42.33370653	    -24.65941664	     -0.00745535	     26.49584550	      0.13579104	      5.48214566	      0.46243974	     -0.63857546	     -0.11679674	      0.00000000
      3.63000000	      4.25730231	    -20.00830913	     -2.83010090	      0.05723817	      0.82207521	     -1.14512576	     34.50646695	    -25.86206714	    -28.88270173	     29.42310435	      0.84339332	      0.46191881	      0.51353005	      1.99572027	      3.74985787	      0.00000000	     42.80145269	    -24.51298440	     -0.17745627	     26.70524305	      0.23201063	      5.32771243	      0.46609442	     -0.70292567	     -0.39646708	      0.00000000
      3.63500000	      3.60052184	    -20.12356495	     -1.93860939	      0.05569984	      0.82150794	     -1.14598828	     35.86691180	    -26.72904447	    -26.91388385	     30.27107072	      1.06648450	      0.29200600	      0.52832985	      2.09514971	      3.52923497	      0.00000000	     42.36029060	    -23.99981158	     -1.72746154	     26.58231739	      0.13238345	      4.97929225	      0.46394896	     -0.86654637	     -0.65404386	      0.00000000
      3.64000000	      3.98654731	    -20.83859306	     -2.20697297	      0.05383659	      0.82088169	     -1.14570005	     36.59708998	    -26.74643351	    -27.27097702	     30.63378729	      1.19415933	      0.45665013	      0.53466045	      2.02723478	      3.11435761	      0.00000000	     43.84781608	    -24.11774863	     -0.59137403	     27.13684544	      0.39232411	      5.07392707	      0.47362730	     -0.83020867	     -0.84283882	      0.00000000
      3.64500000	      3.32487303	    -21.10401330	     -1.22524517	      0.05186322	      0.82012559	     -1.14659643	     38.28197093	    -27.68526199	    -25.05017629	     31.60897674	      1.48368367	      0.20351563	      0.55168072	      2.16429440	      2.93362946	      0.00000000	     43.60158325	    -23.54673109	     -2.14151351	     27.08713843	      0.30578978	      4.75056427	      0.47275975	     -0.99884673	     -1.15669652	      0.00000000
      3.65000000	      3.66026517	    -21.67519591	     -1.61553706	      0.05023091	      0.81947456	     -1.14616987	     38.80342234	    -27.55630898	    -25.49302407	     31.89472703	      1.58583900	      0.40585510	      0.55666800	      2.07807545	      2.50657371	      0.00000000	     44.96884933	    -23.85343978	     -1.10239889	     27.68420824	      0.61303627	      4.75432402	      0.48318058	     -0.92165833	     -1.26557910	      0.00000000
      3.65500000	      2.91158253	    -22.00967927	     -0.88122634	      0.04819701	      0.81861771	     -1.14672311	     40.54537081	    -28.13392923	    -23.32488773	     32.78600141	      1.79947208	      0.19621511	      0.57222367	      2.19372800	      2.26187881	      0.00000000	     44.91320218	    -23.64754302	     -2.57437828	     27.77688553	      0.67453189	      4.37381691	      0.48479811	     -0.99551187	     -1.54124673	      0.00000000
      3.66000000	      2.34098234	    -22.79219723	      0.00456204	      0.04515475	      0.81752946	     -1.14744851	     42.89069784	    -28.90017619	    -20.80692761	     33.83791525	      2.21638693	     -0.21588194	      0.59058303	      2.23532267	      1.86375643	      0.00000000	     45.47255577	    -23.14959604	     -3.54991243	     27.96521794	      0.69254772	      4.32682233	      0.48808513	     -1.12010443	     -1.81311535	      0.00000000
      3.66500000	      2.30473846	    -23.06975849	      0.68654224	      0.04346383	      0.81657953	     -1.14803474	     44.05089640	    -29.71319968	    -19.71413433	     34.62593768	      2.52773757	     -0.21889171	      0.60433662	      2.33046158	      1.76292716	      0.00000000	     45.77608965	    -22.66169168	     -4.16646988	     28.18623868	      0.70174229	      4.01815320	      0.49194267	     -1.20534008	     -2.11624283	      0.00000000
      3.67000000	      1.77386284	    -24.20613891	      0.73437740	      0.03996852	      0.81529800	     -1.14782190	     46.36857134	    -29.55248238	    -17.84925751	     35.41362658	      2.74875014	     -0.68251479	      0.61808438	      2.26153711	      1.35321008	      0.00000000	     47.31110536	    -23.04657884	     -4.20661070	     28.87632734	      1.06660051	      4.09678633	      0.50398699	     -1.15127792	     -2.28221629	      0.00000000
      3.67500000	      1.77464894	    -25.15293139	      0.88199665	      0.03701427	      0.81404599	     -1.14775741	     48.10764755	    -29.77477440	    -16.84843437	     36.16413024	      3.01228813	     -0.90618905	      0.63118314	      2.28789912	      1.08216280	      0.00000000	     48.80521764	    -23.06407523	     -3.78260781	     29.48188057	      1.34027205	      4.20036086	      0.51455589	     -1.14801904	     -2.48948481	      0.00000000
      3.68000000	      1.75267643	    -24.80422772	      1.99015088	      0.03663744	      0.81313737	     -1.14864773	     48.73770619	    -30.97371914	    -15.72277852	     36.95192542	      3.42393499	     -0.47987761	      0.64493276	      2.47865248	      0.85291548	      0.00000000	     48.02969699	    -22.26894083	     -5.26510406	     29.37497497	      1.18770435	      3.50540573	      0.51269003	     -1.22636764	     -2.78005435	      0.00000000
      3.68500000	      1.80594873	    -25.89124212	      1.80440940	      0.03348569	      0.81170955	     -1.14820735	     50.44854117	    -30.87619600	    -15.06931362	     37.63599358	      3.56884476	     -0.74261708	      0.65687201	      2.46737179	      0.73152239	      0.00000000	     49.93385832	    -22.61461841	     -4.36285547	     30.19460338	      1.57760646	      3.77234830	      0.52699525	     -1.15423647	     -2.76826765	      0.00000000
      3.69000000	      1.69834386	    -26.42474597	      1.76847764	      0.03144485	      0.81050885	     -1.14796410	     51.55407800	    -30.89138796	    -14.37372365	     38.17534521	      3.85618443	     -0.65026993	      0.66628547	      2.44359383	      0.20762752	      0.00000000	     50.92443825	    -22.91568667	     -4.23104765	     30.77012785	      1.90459279	      3.53942478	      0.53704004	     -1.07300716	     -3.02846616	      0.00000000
